<?xml version="1.0" standalone="no"?>
<!DOCTYPE svg PUBLIC "-//W3C//DTD SVG 20010904//EN"
 "http://www.w3.org/TR/2001/REC-SVG-20010904/DTD/svg10.dtd">
<svg version="1.0" xmlns="http://www.w3.org/2000/svg"
 width="700.000000pt" height="700.000000pt" viewBox="0 0 700.000000 700.000000"
 preserveAspectRatio="xMidYMid meet">
<metadata>
Created by potrace 1.14, written by Peter Selinger 2001-2017
</metadata>
<g transform="translate(0.000000,700.000000) scale(0.100000,-0.100000)"
fill="#000000" stroke="none">
<path d="M4126 6984 c-15 -14 -205 -331 -490 -814 -69 -118 -125 -219 -124
-225 2 -6 54 -10 131 -10 70 0 127 -2 127 -5 0 -4 -18 -31 -40 -61 -49 -64
-38 -50 -239 -314 -89 -115 -161 -213 -161 -216 0 -4 33 -10 73 -14 83 -8 117
-12 172 -19 22 -3 67 -8 100 -12 33 -3 80 -9 104 -13 l44 -6 -299 -164 c-164
-90 -371 -204 -460 -252 -88 -49 -164 -89 -169 -89 -5 0 -116 69 -247 153
-130 83 -256 163 -278 177 -22 14 -110 70 -196 125 -284 183 -339 217 -323
198 9 -10 26 -29 37 -43 39 -47 119 -138 197 -225 11 -13 38 -44 60 -70 22
-27 51 -60 65 -74 14 -15 50 -56 80 -91 30 -36 57 -67 60 -70 15 -14 200 -229
200 -232 0 -2 -116 -4 -257 -3 -284 0 -299 -1 -280 -19 52 -53 243 -260 249
-270 5 -9 -122 -12 -557 -11 -310 0 -561 -3 -557 -7 6 -6 199 -118 302 -175
193 -107 330 -185 330 -188 0 -2 -33 -9 -72 -15 -40 -7 -82 -14 -93 -16 -11
-3 -36 -7 -55 -10 -49 -8 -320 -53 -350 -58 -116 -21 -260 -46 -285 -50 -16
-2 -50 -8 -75 -11 -50 -8 -63 -11 -135 -24 -27 -6 -66 -13 -85 -15 -33 -6 -49
-8 -130 -22 -19 -3 -44 -7 -55 -9 -82 -13 -274 -46 -293 -51 -20 -4 -23 -10
-20 -42 l3 -37 610 -5 c336 -3 605 -6 599 -8 -6 -1 -89 -57 -185 -123 -333
-233 -489 -357 -489 -390 1 -42 39 -52 151 -38 35 4 98 10 139 14 41 3 86 8
100 10 25 3 132 15 180 20 36 4 144 15 218 24 34 4 62 6 62 5 0 -2 -42 -54
-123 -154 -7 -8 -71 -87 -142 -175 -254 -315 -390 -481 -447 -546 -38 -44 -58
-75 -58 -92 0 -50 -3 -51 378 129 51 24 95 44 98 44 2 0 39 16 81 36 43 20
134 61 203 91 69 31 154 69 190 86 36 16 76 33 90 38 l25 9 -25 -21 c-14 -12
-54 -47 -90 -79 -36 -31 -83 -72 -105 -91 -22 -19 -44 -39 -50 -45 -5 -5 -44
-39 -85 -75 -41 -35 -80 -68 -86 -74 -6 -5 -37 -32 -69 -60 -32 -27 -68 -59
-79 -70 -12 -11 -53 -47 -91 -80 -39 -33 -72 -62 -75 -65 -3 -3 -75 -66 -160
-140 -85 -74 -171 -149 -190 -167 -19 -18 -37 -33 -41 -33 -4 0 -10 -7 -13
-16 -5 -13 -3 -14 6 -7 7 5 117 63 243 128 127 65 327 167 445 228 118 60 221
114 228 120 29 23 17 -4 -44 -98 -79 -122 -139 -230 -158 -281 -26 -75 13
-106 87 -68 29 15 145 92 157 104 3 3 23 18 45 35 l40 29 -45 -50 c-24 -27
-54 -58 -65 -70 -11 -12 -58 -61 -104 -110 -47 -49 -130 -137 -185 -195 -88
-91 -318 -335 -426 -449 -19 -20 -100 -106 -180 -189 -148 -156 -167 -180
-134 -167 11 4 62 23 114 41 52 18 181 63 285 100 105 37 240 84 300 105 61
22 182 64 270 95 88 31 183 65 212 75 l52 19 -10 -27 c-26 -67 -285 -756 -311
-827 -16 -44 -26 -76 -21 -72 4 4 147 146 316 315 282 281 308 304 303 272 -3
-19 -21 -132 -41 -250 -19 -118 -38 -236 -41 -263 l-6 -47 68 72 c38 39 85 88
104 108 19 20 110 115 202 211 91 96 169 177 173 181 7 7 -3 20 -36 46 -18 13
-37 -4 -302 -283 l-95 -99 13 74 c39 226 84 504 81 507 -1 1 -124 -120 -273
-269 -297 -297 -283 -289 -218 -123 37 95 186 495 205 552 l18 51 -156 -55
c-87 -30 -233 -82 -327 -115 -93 -33 -188 -66 -210 -73 -22 -7 -105 -36 -185
-65 -214 -76 -224 -79 -226 -77 -1 1 44 50 99 108 56 58 172 180 257 270 85
90 189 199 230 243 41 43 91 96 110 116 49 51 167 176 356 375 317 334 294
306 277 331 -8 12 -21 25 -28 28 -9 3 -94 -59 -217 -157 -192 -154 -320 -253
-398 -307 l-35 -25 29 50 c33 57 190 295 263 400 99 142 110 140 -122 20 -116
-59 -266 -137 -335 -172 l-125 -64 46 43 c25 24 59 54 75 68 72 63 350 305
354 310 3 3 37 32 75 65 39 33 72 63 75 66 3 3 64 57 135 119 72 62 159 139
195 170 36 32 76 67 90 79 14 11 22 20 18 21 -9 0 -551 -240 -992 -439 -159
-72 -291 -130 -292 -128 -1 1 36 49 83 107 46 58 110 137 141 175 31 39 63 79
72 89 8 10 27 33 41 50 14 17 110 136 213 265 l188 234 -78 -7 c-44 -3 -88 -8
-99 -10 -11 -2 -55 -7 -97 -10 -42 -4 -86 -9 -97 -11 -11 -2 -48 -6 -83 -9
-95 -9 -159 -16 -198 -21 -19 -2 -62 -7 -95 -10 -33 -3 -78 -8 -100 -12 l-40
-5 40 32 c59 48 385 280 577 410 92 63 166 115 164 117 -2 2 -221 4 -486 4
-266 0 -481 1 -479 3 2 2 26 7 53 10 27 4 83 13 125 21 146 27 291 52 351 60
25 3 52 8 60 10 8 2 150 27 315 55 165 28 311 53 324 55 13 2 45 8 70 12 25 4
49 8 54 9 4 1 12 2 19 3 21 2 -2 17 -277 171 -148 84 -273 155 -277 158 -4 4
220 7 498 7 277 0 503 3 502 7 -3 6 -68 78 -225 247 -18 19 -29 37 -24 40 5 4
126 6 270 5 236 0 260 1 248 15 -8 9 -105 122 -217 251 -112 129 -210 243
-219 254 -14 16 83 -44 493 -307 75 -48 123 -74 130 -68 6 5 67 39 136 76 142
77 177 96 310 170 52 29 120 66 150 82 89 48 281 154 330 181 142 79 224 122
232 122 4 0 8 5 8 10 0 6 -12 10 -27 11 -16 0 -37 2 -48 4 -11 2 -47 7 -80 10
-33 3 -73 8 -90 10 -68 10 -194 25 -245 30 -46 5 -72 9 -99 14 -7 2 30 52 239
327 116 152 210 279 210 283 0 3 -63 6 -141 6 -77 -1 -142 1 -144 4 -2 4 32
65 74 136 43 72 144 243 226 380 81 138 168 283 192 323 39 63 43 75 31 89 -7
9 -12 24 -10 35 4 22 -11 23 -32 2z"/>
<path d="M4412 6878 c-55 -78 -365 -508 -438 -609 l-33 -45 232 -1 c128 -1
235 -2 240 -2 6 -1 -222 -289 -404 -509 -28 -34 -50 -64 -48 -66 2 -2 108 -63
234 -136 127 -73 233 -134 238 -137 9 -5 -4 -30 -30 -58 -10 -11 -142 -168
-293 -350 -151 -181 -276 -332 -279 -335 -17 -15 -81 -100 -76 -100 3 0 126
41 273 91 147 50 314 106 372 126 58 19 112 37 120 40 8 3 143 49 300 103 157
54 293 101 303 105 16 7 17 -16 17 -404 0 -226 3 -411 8 -411 4 0 32 7 62 15
30 8 69 17 85 20 17 3 44 10 61 16 17 5 40 11 50 14 40 8 244 57 354 85 63 16
126 31 140 34 32 6 32 6 235 55 94 23 184 46 200 51 48 15 208 51 211 47 3 -2
-381 -316 -713 -582 -68 -54 -121 -101 -118 -103 2 -2 191 -4 419 -4 229 1
416 -1 416 -3 0 -2 -30 -19 -67 -38 -75 -37 -561 -286 -831 -425 -96 -49 -173
-93 -173 -98 0 -5 210 -152 467 -327 257 -174 470 -320 473 -322 2 -3 -78 -5
-180 -4 -101 0 -200 0 -219 -1 -32 -2 -33 -2 -10 -10 35 -11 498 -177 540
-194 19 -8 49 -19 66 -26 l32 -12 -220 -216 c-200 -198 -248 -239 -248 -215 0
4 -13 22 -28 39 -15 17 -69 81 -121 142 l-94 111 -29 -20 c-16 -12 -27 -26
-25 -33 3 -6 133 -239 291 -519 157 -279 286 -510 286 -513 0 -7 -28 1 -320
91 -123 38 -511 155 -514 155 -1 0 -3 -167 -3 -370 0 -204 -3 -373 -5 -376 -3
-2 -43 46 -90 108 -101 134 -278 367 -432 568 -61 80 -168 222 -239 315 -70
94 -133 177 -140 185 -7 8 -29 37 -50 64 -42 56 -45 49 -21 -63 13 -63 62
-315 77 -401 11 -59 78 -407 81 -422 2 -10 1 -18 -2 -18 -4 0 -95 18 -202 40
-107 22 -206 43 -220 45 -14 3 -65 13 -115 24 -49 10 -91 18 -92 18 0 -1 -4
-18 -8 -38 l-6 -35 68 -14 c37 -8 73 -15 78 -16 6 -1 26 -5 45 -9 19 -3 51
-10 70 -15 27 -7 274 -58 463 -95 21 -5 21 4 3 92 -8 37 -17 82 -19 98 -4 24
-54 282 -73 380 -24 121 -32 170 -30 172 1 1 61 -75 133 -170 442 -583 786
-1033 793 -1041 6 -5 9 173 10 429 0 241 1 440 3 441 1 1 178 -51 392 -117
443 -136 525 -159 525 -153 0 2 -47 87 -105 188 -101 178 -167 296 -225 401
-15 28 -52 93 -82 145 -31 52 -54 97 -52 99 3 3 12 -5 20 -18 16 -22 20 -18
310 271 162 160 294 294 294 298 0 3 -44 20 -97 39 -54 18 -136 48 -183 66
l-85 33 123 -2 c67 0 122 1 122 4 -1 3 -44 34 -98 70 -53 36 -272 184 -487
331 -214 146 -407 276 -427 290 l-37 25 162 83 c89 46 248 127 352 181 105 53
312 159 460 235 149 76 273 140 277 144 4 3 -207 6 -469 5 l-476 -1 24 21 c59
50 592 481 791 640 70 55 127 104 127 108 1 4 -38 -4 -86 -17 -49 -13 -203
-51 -343 -85 -140 -34 -318 -77 -395 -97 -77 -19 -149 -36 -160 -39 -11 -2
-130 -31 -265 -64 -337 -83 -380 -93 -388 -85 -3 3 -6 188 -6 410 0 223 -3
405 -7 405 -4 0 -193 -63 -420 -141 -228 -77 -499 -169 -603 -205 -104 -35
-193 -64 -198 -64 -8 0 23 39 171 215 41 50 268 322 283 340 9 11 39 47 67 80
l50 60 -47 28 c-26 15 -136 80 -244 143 l-198 115 40 47 c35 42 182 222 213
262 35 45 142 176 147 180 3 3 29 35 58 72 l53 68 -245 2 -245 3 57 77 c108
147 377 521 380 528 2 5 -10 18 -27 29 l-30 21 -59 -82z"/>
<path d="M3503 4264 c-72 -19 -121 -45 -166 -91 -148 -147 -147 -378 1 -520
196 -187 527 -93 595 170 69 262 -171 507 -430 441z m197 -114 c127 -65 183
-227 120 -351 -125 -243 -491 -159 -493 114 -1 155 125 272 281 261 29 -2 70
-13 92 -24z"/>
<path d="M2489 3706 c-55 -19 -106 -63 -130 -113 -33 -69 -24 -132 60 -383 83
-248 107 -289 191 -326 59 -25 106 -20 233 29 l118 46 -5 -27 c-22 -108 -66
-306 -68 -307 -3 -2 -165 -116 -288 -202 -90 -63 -132 -105 -156 -158 -27 -57
-27 -67 6 -365 12 -113 17 -157 26 -235 18 -161 30 -198 80 -249 114 -113 312
-94 389 39 34 58 37 133 10 315 -2 14 -7 54 -10 90 -4 36 -10 94 -14 128 l-8
64 105 74 c58 41 107 73 108 71 2 -2 38 -104 80 -228 85 -253 124 -336 262
-564 113 -185 145 -215 237 -223 141 -12 265 100 271 244 3 63 -11 98 -98 254
-133 237 -158 293 -233 513 -76 227 -76 227 -65 285 17 88 16 87 56 48 57 -55
149 -77 213 -50 28 12 136 93 246 185 11 10 58 48 104 86 101 82 126 123 126
208 -1 122 -86 218 -195 217 -62 0 -84 -11 -173 -81 -42 -34 -80 -61 -84 -61
-5 0 -28 46 -52 103 -69 161 -197 317 -301 366 -50 24 -66 26 -175 26 l-120
-1 -208 -83 c-115 -46 -210 -81 -212 -80 -1 2 -21 63 -44 134 -54 173 -91 213
-201 220 -25 2 -61 -2 -81 -9z m99 -158 c16 -16 15 -38 -2 -57 -13 -14 -10
-28 22 -110 31 -80 41 -95 62 -98 37 -5 45 -19 34 -50 -12 -36 -113 -75 -139
-53 -19 16 -20 56 0 67 13 8 10 23 -23 103 -34 84 -41 95 -65 98 -19 2 -29 11
-33 27 -8 32 1 43 50 65 49 22 78 24 94 8z m788 -126 c6 -4 21 -30 34 -59 17
-41 19 -55 10 -72 -12 -24 -52 -28 -69 -7 -18 21 -195 -51 -199 -81 -8 -52
-76 -56 -88 -6 -4 15 -13 37 -19 50 -26 50 14 89 59 59 22 -14 30 -13 115 21
54 22 91 42 91 50 0 41 36 65 66 45z m208 -48 c18 -7 21 -36 6 -64 -14 -25 73
-190 100 -190 33 0 50 -12 50 -34 0 -28 -11 -43 -40 -55 -14 -6 -32 -16 -41
-22 -20 -15 -65 -4 -73 17 -4 9 0 26 8 38 13 19 10 29 -32 109 -37 70 -50 87
-68 87 -12 0 -29 7 -38 15 -22 23 -6 56 40 82 41 23 62 27 88 17z m-621 -98
c9 -7 17 -18 17 -24 0 -6 7 -23 17 -39 32 -57 -8 -110 -57 -76 -20 14 -29 13
-116 -22 -51 -20 -93 -40 -93 -43 4 -25 -4 -43 -20 -52 -26 -13 -63 20 -80 73
-21 65 8 103 56 72 23 -15 29 -14 118 21 62 24 92 41 88 50 -4 12 30 54 45 54
4 0 15 -7 25 -14z m230 -124 c-4 -16 96 -35 113 -21 19 16 34 2 34 -31 0 -39
-28 -55 -49 -29 -16 19 -85 30 -121 19 -19 -6 -27 45 -9 66 13 16 35 13 32 -4z
m209 -44 c5 -14 108 -39 108 -27 0 5 9 9 20 9 16 0 20 -6 18 -31 -3 -40 -26
-60 -42 -37 -17 23 -107 43 -117 27 -13 -22 -38 -2 -33 27 3 15 7 31 10 36 8
12 32 10 36 -4z m-302 -72 c0 -18 142 -45 148 -28 2 7 15 12 28 12 25 0 28 -9
24 -60 -4 -51 -51 -73 -65 -31 -7 23 -146 52 -153 33 -5 -15 -34 -16 -49 -1
-12 12 0 73 19 96 12 15 48 -1 48 -21z m1098 -21 c17 -20 32 -45 32 -55 0 -27
-24 -42 -55 -34 -24 6 -35 -2 -96 -62 -58 -57 -69 -73 -64 -94 13 -63 -44 -71
-98 -15 -56 57 -44 109 23 98 19 -3 38 10 91 63 62 61 67 69 62 100 -5 29 -2
35 18 43 30 11 45 3 87 -44z m-397 -11 c11 -14 10 -21 -4 -45 -16 -29 -15 -32
20 -123 28 -72 41 -93 53 -91 22 4 36 -5 43 -30 9 -28 -1 -39 -57 -64 -59 -26
-69 -26 -88 -3 -17 18 -10 53 12 67 6 4 7 12 3 18 -5 7 -19 39 -32 72 -36 95
-42 105 -67 105 -13 0 -27 8 -32 17 -16 28 7 61 52 76 56 20 81 20 97 1z
m-414 -24 c3 -11 9 -20 14 -20 5 0 11 -1 14 -1 92 -25 120 -28 128 -14 11 20
43 19 51 -1 9 -23 -3 -81 -19 -94 -16 -13 -45 -3 -45 16 0 7 -10 16 -22 19
-112 25 -121 26 -138 10 -14 -12 -19 -13 -35 -2 -14 11 -16 21 -11 53 10 50
13 54 38 54 11 0 22 -8 25 -20z m-320 -79 c3 -14 21 -22 66 -31 34 -6 68 -14
75 -16 7 -2 15 3 18 11 8 21 42 19 48 -2 7 -27 -1 -74 -16 -90 -16 -16 -48 -8
-48 12 0 15 -15 21 -70 30 -19 3 -43 8 -53 11 -10 3 -27 -2 -38 -11 -15 -15
-21 -15 -34 -5 -18 15 -18 23 -4 73 7 27 15 37 30 37 12 0 23 -8 26 -19z m292
-54 c6 -8 8 -17 4 -20 -3 -4 -2 -7 3 -8 10 -1 18 -2 88 -18 39 -9 52 -9 65 2
26 22 46 15 49 -19 4 -43 -14 -84 -37 -84 -11 0 -22 9 -26 19 -4 15 -21 23
-63 31 -31 6 -62 13 -69 15 -6 2 -17 -3 -23 -11 -27 -31 -61 -3 -54 44 9 55
39 78 63 49z m-334 -96 c4 -13 22 -23 54 -31 75 -18 84 -18 109 -2 32 21 51 2
45 -46 -6 -48 -27 -71 -51 -55 -9 6 -16 16 -14 22 1 6 1 11 -1 11 -1 0 -33 7
-72 15 -62 13 -71 13 -87 -2 -10 -8 -25 -13 -34 -9 -14 5 -16 15 -10 52 3 25
8 50 12 55 10 16 42 10 49 -10z m292 -64 c14 -16 40 -28 83 -36 56 -11 64 -11
81 5 18 16 21 16 35 2 24 -24 6 -102 -25 -106 -16 -3 -24 2 -28 16 -4 15 -21
23 -79 34 -41 8 -74 11 -74 7 0 -5 0 -12 0 -16 0 -5 3 -8 8 -8 57 -3 111 -55
119 -113 9 -64 3 -76 -67 -160 -8 -9 -2 -34 22 -94 27 -66 38 -83 58 -88 17
-4 26 -14 28 -32 3 -22 -3 -28 -40 -43 -53 -23 -59 -24 -80 -13 -21 10 -23 30
-6 57 17 27 -46 179 -76 183 -11 2 -26 13 -32 26 -6 13 -21 32 -32 42 -12 11
-25 27 -30 36 -9 16 -12 15 -39 -4 -21 -15 -41 -19 -76 -17 -26 1 -53 7 -60
12 -35 28 -55 21 -119 -39 -53 -49 -62 -63 -60 -88 3 -21 -2 -32 -17 -40 -18
-9 -27 -5 -62 28 -30 29 -40 45 -37 63 2 20 9 24 36 25 26 0 46 12 95 58 52
50 61 63 58 88 -2 22 2 31 16 34 11 3 25 20 31 38 20 55 90 100 139 91 10 -2
24 -4 32 -4 8 -1 31 -19 53 -42 36 -38 39 -39 60 -25 12 9 32 16 43 17 18 0
18 1 -4 10 -21 8 -23 13 -17 51 7 41 21 68 35 68 4 0 17 -11 28 -23z m-550
-498 c19 -17 16 -47 -7 -59 -18 -9 -19 -20 -17 -95 2 -72 6 -87 25 -105 43
-41 21 -70 -53 -70 -28 0 -56 5 -63 12 -19 19 -14 49 8 55 18 5 20 14 20 92 0
81 -2 89 -25 109 -14 12 -25 26 -25 31 0 30 108 53 137 30z m743 -169 c8 -14
7 -26 -1 -42 -10 -18 -5 -33 27 -99 22 -43 44 -78 49 -77 40 3 63 -23 45 -51
-12 -20 -81 -52 -104 -49 -23 3 -34 41 -17 61 7 9 -2 36 -32 94 -23 45 -45 79
-49 77 -5 -3 -17 -2 -29 1 -15 5 -19 14 -17 33 2 21 14 32 48 50 54 27 66 28
80 2z m-743 -199 c7 0 17 -9 22 -20 8 -15 5 -24 -13 -44 -19 -20 -22 -34 -20
-83 1 -33 2 -71 3 -86 1 -17 7 -28 15 -28 32 0 30 -69 -2 -71 -100 -5 -134 10
-113 50 7 11 17 21 24 21 7 0 11 14 11 37 -1 21 -2 63 -3 94 -1 48 -4 57 -21
62 -24 6 -28 52 -6 64 12 7 55 8 103 4z m910 -137 c3 -8 1 -26 -5 -39 -9 -20
-5 -35 28 -97 30 -58 43 -74 63 -76 28 -3 41 -25 32 -52 -8 -25 -94 -61 -117
-49 -20 11 -24 39 -6 57 16 16 -59 165 -86 168 -33 4 -50 29 -37 53 22 40 116
66 128 35z"/>
<path d="M3048 2549 c-26 -15 -23 -65 3 -80 34 -18 69 3 69 40 0 42 -36 62
-72 40z"/>
<path d="M3272 2488 c-16 -16 -15 -53 1 -65 36 -28 75 -17 81 22 7 42 -52 73
-82 43z"/>
</g>
</svg>
